<?xml version="1.0" standalone="no"?>
<!DOCTYPE svg PUBLIC "-//W3C//DTD SVG 20010904//EN"
 "http://www.w3.org/TR/2001/REC-SVG-20010904/DTD/svg10.dtd">
<svg version="1.0" xmlns="http://www.w3.org/2000/svg"
 width="895.000000pt" height="365.000000pt" viewBox="0 0 895.000000 365.000000"
 preserveAspectRatio="xMidYMid meet">

<g transform="translate(0.000000,365.000000) scale(0.100000,-0.100000)"
fill="#000000" stroke="none">
<path d="M4435 2360 c-255 -29 -458 -210 -497 -443 -30 -184 64 -385 234 -495
100 -65 203 -95 323 -95 120 0 200 19 299 70 76 40 181 135 210 191 l17 32
-72 0 -71 0 -63 -59 c-148 -138 -331 -166 -510 -77 -166 82 -256 248 -227 420
14 89 46 150 114 219 165 167 441 175 611 18 44 -41 45 -41 121 -41 76 0 77 0
65 23 -23 43 -129 135 -197 170 -110 58 -232 81 -357 67z"/>
<path d="M1200 1848 c0 -571 1 -561 -80 -614 -51 -34 -138 -38 -188 -9 l-32
19 -40 -39 -40 -40 21 -16 c65 -49 196 -65 288 -34 63 21 133 82 163 143 23
47 23 50 28 501 l5 454 305 -436 305 -436 93 0 92 -1 0 505 0 505 -60 0 -60 0
-2 -438 -3 -439 -306 436 -305 436 -92 3 -92 3 0 -503z"/>
<path d="M2270 1845 l0 -505 355 0 355 0 0 55 0 55 -295 0 -295 0 0 175 0 175
265 0 265 0 0 55 0 55 -262 2 -263 3 -3 163 -2 162 280 0 280 0 0 55 0 55
-340 0 -340 0 0 -505z"/>
<path d="M3077 2338 c6 -11 311 -424 335 -454 5 -8 -62 -101 -197 -274 -113
-144 -205 -264 -205 -266 0 -2 33 -4 73 -4 l72 0 170 225 c93 124 170 225 171
225 0 0 77 -101 170 -225 l169 -225 73 0 c39 0 72 2 72 5 0 2 -90 119 -200
260 -110 141 -200 261 -200 267 0 5 77 113 170 239 94 126 170 231 170 234 0
3 -33 5 -73 5 l-72 0 -139 -195 c-77 -107 -140 -195 -141 -195 -1 0 -64 88
-141 195 l-139 195 -73 0 c-56 0 -71 -3 -65 -12z"/>
<path d="M5110 1845 l0 -505 60 0 60 0 0 225 0 225 313 -2 312 -3 3 -222 2
-223 55 0 55 0 0 505 0 505 -55 0 -55 0 0 -225 0 -225 -315 0 -315 0 0 225 0
225 -60 0 -60 0 0 -505z"/>
<path d="M6281 1853 c-127 -274 -231 -501 -231 -505 0 -5 30 -8 68 -8 l67 0
51 113 50 112 288 0 288 0 51 -112 50 -113 70 0 c62 0 68 2 63 18 -4 9 -109
236 -234 504 l-227 487 -61 1 -61 0 -232 -497z m413 91 c64 -144 116 -264 116
-268 0 -3 -106 -6 -235 -6 -133 0 -235 4 -235 9 0 5 46 112 101 238 56 125
108 243 116 262 8 18 16 32 18 30 2 -2 55 -122 119 -265z"/>
<path d="M6960 2295 l0 -55 185 0 185 0 0 -450 0 -450 60 0 60 0 0 450 0 450
185 0 185 0 0 55 0 55 -430 0 -430 0 0 -55z"/>
</g>
</svg>
